M48
;Layer_Color=9474304
;FILE_FORMAT=4:4
METRIC,LZ
;TYPE=PLATED
T1F00S00C0.5000
T2F00S00C1.0200
%
T01
X0091948Y0121793
X00812059Y01425469
X0080264Y0145415
X008255
X0082296Y0147828
X0080645Y0151511
X0081153Y015494
X009094Y01544339
X00906696Y0156502
X0087122Y01503567
X00759988Y0145722
X007112Y014732
X00711454Y01516267
X0064008Y0152781
X0063246Y0155543
X0070612Y01413122
X00736092Y01414272
X0079121Y0141732
X006814Y0137092
X0066929Y0124968
X0061214Y0122301
X0074676Y0159131
T02
X0058674Y0110236
Y0112776
Y0115316
Y0117856
X0063246Y0112649
Y0110109
X0068834Y011303
X0073914
X0079502Y0113157
X0084582
X009525Y0111379
Y0118491
X0097155Y0130302
Y0132842
Y0135382
Y0137922
Y0140462
Y0143002
Y0145542
X0090678Y014478
Y014732
Y014986
Y01524
X0094615Y0156718
X0097155
X0099695
X0090678Y014224
Y01397
Y013716
Y013462
Y013208
Y012954
X0084582Y0131064
X0081915Y0126492
Y0121412
X0071247Y0121539
Y0126619
X0076962Y0131064
X0076327Y0134747
X0068707
X0058801Y0135255
Y0137795
Y0140335
Y0142875
Y0145415
Y0147955
X0058547Y0152019
Y0154559
X0058801Y0132715
Y0130175
Y0127635
Y0125095
X0058674Y0120396
M30
