G04*
G04 #@! TF.GenerationSoftware,Altium Limited,Altium Designer,23.1.1 (15)*
G04*
G04 Layer_Physical_Order=1*
G04 Layer_Color=255*
%FSLAX44Y44*%
%MOMM*%
G71*
G04*
G04 #@! TF.SameCoordinates,A58621D0-7F8E-4CF1-AD1D-3CF83AC58B01*
G04*
G04*
G04 #@! TF.FilePolarity,Positive*
G04*
G01*
G75*
%ADD16R,1.0500X1.0500*%
%ADD17R,0.8890X2.0066*%
%ADD18R,2.0066X0.8890*%
%ADD19R,2.0000X2.0000*%
%ADD20R,2.0320X2.0000*%
%ADD24C,0.8000*%
%ADD25C,1.5300*%
%ADD26C,1.3000*%
%ADD27C,1.3300*%
D16*
X736600Y1477010D02*
D03*
X750570D02*
D03*
X764540D02*
D03*
X736600Y1504950D02*
D03*
X750570D02*
D03*
X764540D02*
D03*
X736600Y1490980D02*
D03*
X750570D02*
D03*
X764540D02*
D03*
D17*
X822960Y1387555D02*
D03*
X810260D02*
D03*
X797560D02*
D03*
X784860D02*
D03*
X772160D02*
D03*
X759460D02*
D03*
X746760D02*
D03*
X734060D02*
D03*
X721360D02*
D03*
X708660D02*
D03*
D18*
X680810Y1567067D02*
D03*
Y1554367D02*
D03*
Y1541667D02*
D03*
Y1528967D02*
D03*
Y1516267D02*
D03*
Y1503567D02*
D03*
Y1490867D02*
D03*
Y1478167D02*
D03*
Y1465467D02*
D03*
Y1452767D02*
D03*
Y1440067D02*
D03*
Y1427367D02*
D03*
Y1414667D02*
D03*
Y1401967D02*
D03*
X850810Y1541667D02*
D03*
Y1528967D02*
D03*
Y1516267D02*
D03*
Y1503567D02*
D03*
Y1490867D02*
D03*
Y1478167D02*
D03*
Y1465467D02*
D03*
Y1452767D02*
D03*
Y1440067D02*
D03*
Y1427367D02*
D03*
Y1414667D02*
D03*
Y1401967D02*
D03*
Y1567067D02*
D03*
Y1554367D02*
D03*
X680810Y1567067D02*
D03*
Y1554367D02*
D03*
Y1541667D02*
D03*
Y1528967D02*
D03*
Y1516267D02*
D03*
Y1503567D02*
D03*
Y1490867D02*
D03*
Y1478167D02*
D03*
Y1465467D02*
D03*
Y1452767D02*
D03*
Y1440067D02*
D03*
Y1427367D02*
D03*
Y1414667D02*
D03*
Y1401967D02*
D03*
X850810Y1541667D02*
D03*
Y1528967D02*
D03*
Y1516267D02*
D03*
Y1503567D02*
D03*
Y1490867D02*
D03*
Y1478167D02*
D03*
Y1465467D02*
D03*
Y1452767D02*
D03*
Y1440067D02*
D03*
Y1427367D02*
D03*
Y1414667D02*
D03*
Y1401967D02*
D03*
Y1567067D02*
D03*
Y1554367D02*
D03*
X680810Y1567067D02*
D03*
Y1554367D02*
D03*
Y1541667D02*
D03*
Y1528967D02*
D03*
Y1516267D02*
D03*
Y1503567D02*
D03*
Y1490867D02*
D03*
Y1478167D02*
D03*
Y1465467D02*
D03*
Y1452767D02*
D03*
Y1440067D02*
D03*
Y1427367D02*
D03*
Y1414667D02*
D03*
Y1401967D02*
D03*
X850810Y1541667D02*
D03*
Y1528967D02*
D03*
Y1516267D02*
D03*
Y1503567D02*
D03*
Y1490867D02*
D03*
Y1478167D02*
D03*
Y1465467D02*
D03*
Y1452767D02*
D03*
Y1440067D02*
D03*
Y1427367D02*
D03*
Y1414667D02*
D03*
Y1401967D02*
D03*
Y1567067D02*
D03*
Y1554367D02*
D03*
D19*
X971390Y1429860D02*
D03*
Y1404460D02*
D03*
Y1379060D02*
D03*
Y1353660D02*
D03*
Y1328260D02*
D03*
X971224Y1302643D02*
D03*
X971390Y1455260D02*
D03*
X952660Y1113630D02*
D03*
Y1184750D02*
D03*
X818990Y1213960D02*
D03*
Y1264760D02*
D03*
X712310Y1266030D02*
D03*
Y1215230D02*
D03*
X845980Y1131410D02*
D03*
X795180D02*
D03*
X688500Y1130140D02*
D03*
X739300D02*
D03*
X632620Y1100930D02*
D03*
Y1126330D02*
D03*
X586900Y1204120D02*
D03*
Y1178720D02*
D03*
Y1153320D02*
D03*
X587053Y1127758D02*
D03*
X586900Y1102520D02*
D03*
X845660Y1310800D02*
D03*
X769460D02*
D03*
X686910Y1347630D02*
D03*
X763110D02*
D03*
X997110Y1567340D02*
D03*
X971710D02*
D03*
X946310D02*
D03*
X585630Y1520030D02*
D03*
Y1545430D02*
D03*
D20*
X588009Y1301910D02*
D03*
Y1327310D02*
D03*
Y1352710D02*
D03*
Y1378110D02*
D03*
Y1403510D02*
D03*
Y1428910D02*
D03*
Y1454310D02*
D03*
Y1479710D02*
D03*
Y1251110D02*
D03*
Y1276510D02*
D03*
X906780Y1498439D02*
D03*
Y1523839D02*
D03*
Y1295240D02*
D03*
Y1320639D02*
D03*
Y1346039D02*
D03*
Y1371440D02*
D03*
Y1396839D02*
D03*
Y1422240D02*
D03*
Y1447639D02*
D03*
Y1473039D02*
D03*
D24*
X850810Y1503567D02*
X871220D01*
X888620Y1504683D02*
X893306Y1499997D01*
X888620Y1504683D02*
Y1516949D01*
X905383Y1499997D02*
X906780Y1498600D01*
X893306Y1499997D02*
X905383D01*
X864157Y1541412D02*
X888620Y1516949D01*
X791210Y1417320D02*
X792563D01*
X799307Y1410576D02*
X805574D01*
X792563Y1417320D02*
X799307Y1410576D01*
X812059Y1425469D02*
X813412D01*
X815310Y1427367D01*
X850810D01*
X826772Y1454150D02*
X828155Y1452767D01*
X850810D01*
X825500Y1454150D02*
X826772D01*
X909400Y1544339D02*
X961877D01*
X971550Y1567180D02*
X972240Y1566490D01*
Y1554701D02*
Y1566490D01*
X961877Y1544339D02*
X972240Y1554701D01*
X850810Y1567067D02*
X851255Y1567512D01*
X880407Y1554367D02*
X881045Y1555005D01*
X898415Y1587500D02*
X992264D01*
X878428Y1567512D02*
X898415Y1587500D01*
X881045Y1555005D02*
X882891D01*
X851255Y1567512D02*
X878428D01*
X892007Y1564121D02*
X905797D01*
X882891Y1555005D02*
X892007Y1564121D01*
X905797D02*
X906696Y1565020D01*
X805574Y1410576D02*
X810260Y1405890D01*
X704767Y1413122D02*
X706120D01*
X703222Y1414667D02*
X704767Y1413122D01*
X680810Y1414667D02*
X703222D01*
X681065Y1427622D02*
X728936D01*
X741384Y1440069D01*
X680810Y1427367D02*
X681065Y1427622D01*
X788559Y1440069D02*
X802640Y1454150D01*
X710243Y1469109D02*
Y1472243D01*
X759988Y1457220D02*
Y1458573D01*
X710243Y1472243D02*
X711200Y1473200D01*
X741384Y1440069D02*
X788559D01*
X681065Y1453022D02*
X694157D01*
X763290Y1475760D02*
X764540Y1477010D01*
X680810Y1452767D02*
X681065Y1453022D01*
X763290Y1461875D02*
Y1475760D01*
X759988Y1458573D02*
X763290Y1461875D01*
X694157Y1453022D02*
X710243Y1469109D01*
X613410Y1524876D02*
Y1568844D01*
X618096Y1573530D01*
X650077D01*
X656540Y1567067D01*
X632460Y1555430D02*
X633268Y1554622D01*
X680555D01*
X680810Y1554367D01*
X656540Y1567067D02*
X680810D01*
X585470Y1520190D02*
X608724D01*
X613410Y1524876D01*
X924940Y1308553D02*
Y1435480D01*
Y1278876D02*
Y1308553D01*
X845312Y1355344D02*
Y1401967D01*
X887730Y1273416D02*
Y1410509D01*
Y1273416D02*
X892416Y1268730D01*
X914794D02*
X924940Y1278876D01*
X892416Y1268730D02*
X914794D01*
X872490Y1264920D02*
X887730Y1249680D01*
X923290D02*
X937260Y1263650D01*
Y1389380D02*
X952500Y1404620D01*
X937260Y1263650D02*
Y1389380D01*
X924940Y1435480D02*
X944880Y1455420D01*
X955916Y1353820D02*
X971550D01*
X951230Y1349134D02*
X955916Y1353820D01*
X951230Y1249680D02*
Y1349134D01*
X919480Y1217930D02*
X951230Y1249680D01*
X839470Y1189990D02*
X863600Y1165860D01*
X769620Y1223010D02*
X802640Y1189990D01*
X839470D01*
X824230Y1173480D02*
X845820Y1151890D01*
X754310Y1201727D02*
X782557Y1173480D01*
X824230D01*
X781050Y1329690D02*
X822960Y1371600D01*
X776484Y1329690D02*
X781050D01*
X756146Y1329630D02*
X776424D01*
X776484Y1329690D01*
X751460Y1324944D02*
X756146Y1329630D01*
X751460Y1292135D02*
Y1324944D01*
X823016Y1478224D02*
X850754D01*
X850810Y1478167D01*
X822960Y1478280D02*
X823016Y1478224D01*
X972947Y1327023D02*
X988454D01*
X971550Y1328420D02*
X972947Y1327023D01*
X850810Y1554367D02*
X880407D01*
X996950Y1551546D02*
Y1559478D01*
X995807Y1566037D02*
X996950Y1567180D01*
Y1551546D02*
X1001636Y1546860D01*
X996950Y1567180D02*
Y1582814D01*
X1031240Y1140460D02*
Y1542174D01*
X1026554Y1546860D02*
X1031240Y1542174D01*
X1001636Y1546860D02*
X1026554D01*
X995807Y1560621D02*
Y1566037D01*
Y1560621D02*
X996950Y1559478D01*
X992264Y1587500D02*
X996950Y1582814D01*
X735193Y1413373D02*
X736092Y1414272D01*
X732653Y1413373D02*
X735193D01*
X726459Y1407179D02*
X732653Y1413373D01*
X726459Y1407073D02*
Y1407179D01*
X721615Y1387810D02*
Y1402229D01*
X726459Y1407073D01*
X721360Y1387555D02*
X721615Y1387810D01*
X727140Y1158940D02*
Y1198746D01*
X715886Y1109980D02*
Y1147686D01*
X727140Y1158940D01*
Y1198746D02*
X730310Y1201916D01*
X742310Y1196945D02*
Y1284314D01*
X708660Y1317964D02*
X742310Y1284314D01*
X751460Y1292135D02*
X754310Y1289285D01*
Y1201727D02*
Y1289285D01*
X696664Y1312990D02*
X730310Y1279344D01*
X739140Y1193776D02*
X742310Y1196945D01*
X730310Y1201916D02*
Y1279344D01*
X708660Y1317964D02*
Y1387555D01*
X690236Y1312990D02*
X696664D01*
X656590Y1346636D02*
X690236Y1312990D01*
X868843Y1429397D02*
X887730Y1410509D01*
X863600Y1165860D02*
X966470D01*
X993140Y1192530D01*
X845820Y1151890D02*
X981710D01*
X1009650Y1179830D01*
X739140Y1130300D02*
Y1193776D01*
X822960Y1371600D02*
Y1387555D01*
X656590Y1346636D02*
Y1435126D01*
X661276Y1439812D01*
X680555D01*
X688340Y1130300D02*
Y1292860D01*
X588010Y1327150D02*
X654050D01*
X688340Y1292860D01*
X643320Y1447230D02*
X661557Y1465467D01*
X588010Y1377950D02*
X626634D01*
X631320Y1469801D02*
X639686Y1478167D01*
X619320Y1408036D02*
Y1484471D01*
X626634Y1377950D02*
X631320Y1382636D01*
X607060Y1433436D02*
Y1492250D01*
X588010Y1428750D02*
X602374D01*
X631320Y1382636D02*
Y1469801D01*
X619320Y1484471D02*
X625716Y1490867D01*
X618204Y1352550D02*
X643320Y1377666D01*
Y1447230D01*
X614634Y1403350D02*
X619320Y1408036D01*
X602374Y1428750D02*
X607060Y1433436D01*
X588010Y1403350D02*
X614634D01*
X607060Y1492250D02*
X617728Y1502918D01*
X731687Y1541667D02*
X746760Y1556741D01*
Y1591310D01*
X642509Y1528967D02*
X680810D01*
X641352Y1527810D02*
X642509Y1528967D01*
X640080Y1527810D02*
X641352D01*
X588645Y1250315D02*
X668655D01*
X588010Y1250950D02*
X588645Y1250315D01*
X668655D02*
X669290Y1249680D01*
X887730D02*
X923290D01*
X872490Y1264920D02*
Y1408684D01*
X1009650Y1179830D02*
Y1356360D01*
X655348Y1503567D02*
X680810D01*
X654699Y1502918D02*
X655348Y1503567D01*
X661557Y1465467D02*
X680810D01*
X639686Y1478167D02*
X680810D01*
X617728Y1502918D02*
X654699D01*
X625716Y1490867D02*
X680810D01*
X810260Y1387555D02*
Y1405890D01*
X680810Y1401967D02*
X680955D01*
X681400Y1370920D02*
Y1401522D01*
X680955Y1401967D02*
X681400Y1401522D01*
X808879Y1516267D02*
X850810D01*
X806450Y1515110D02*
X807722D01*
X808879Y1516267D01*
X811530Y1533654D02*
X816216Y1528967D01*
X850810D01*
X811530Y1533654D02*
Y1549400D01*
X680810Y1516267D02*
X711454D01*
X588010Y1352550D02*
X618204D01*
X680555Y1439812D02*
X680810Y1440067D01*
X850810Y1541667D02*
X851065Y1541412D01*
X864157D01*
X979170Y1088390D02*
X1031240Y1140460D01*
X816610Y1088390D02*
X979170D01*
X770496Y1158240D02*
X800100D01*
X765810Y1153554D02*
X770496Y1158240D01*
X826770Y1131570D02*
X843280D01*
X800100Y1158240D02*
X826770Y1131570D01*
X765810Y1114666D02*
Y1153554D01*
X715886Y1109980D02*
X761124D01*
X765810Y1114666D01*
X993140Y1192530D02*
Y1322337D01*
X864157Y1439812D02*
X868843Y1435126D01*
Y1429397D02*
Y1435126D01*
X892810Y1422400D02*
X906780D01*
X883920Y1431290D02*
X892810Y1422400D01*
X883920Y1431290D02*
Y1457960D01*
X876668Y1465212D02*
X883920Y1457960D01*
X851065Y1465212D02*
X876668D01*
X851065Y1439812D02*
X864157D01*
X866507Y1414667D02*
X872490Y1408684D01*
X850810Y1414667D02*
X866507D01*
X850810Y1465467D02*
X851065Y1465212D01*
X850810Y1440067D02*
X851065Y1439812D01*
X769620Y1223010D02*
Y1310640D01*
X952500Y1207770D02*
X971550Y1226820D01*
X952500Y1184910D02*
Y1207770D01*
X971550Y1226820D02*
Y1303020D01*
X988454Y1327023D02*
X993140Y1322337D01*
X986790Y1379220D02*
X1009650Y1356360D01*
X838200Y1214120D02*
X845820Y1221740D01*
X819150Y1214120D02*
X838200D01*
X845820Y1221740D02*
Y1310640D01*
X564756Y1545590D02*
X585470D01*
X560070Y1540904D02*
X564756Y1545590D01*
X560070Y1286510D02*
X570230Y1276350D01*
X560070Y1286510D02*
Y1540904D01*
X627774Y1074420D02*
X632460Y1079106D01*
X558800Y1093470D02*
X577850Y1074420D01*
X627774D01*
X632460Y1079106D02*
Y1101090D01*
X558800Y1093470D02*
Y1148474D01*
X563486Y1153160D02*
X586740D01*
X558800Y1148474D02*
X563486Y1153160D01*
X632460Y1126490D02*
Y1181100D01*
X586740Y1203960D02*
X609600D01*
X632460Y1181100D01*
X657860Y1123950D02*
Y1197610D01*
X612140Y1223010D02*
X632460D01*
X657860Y1197610D01*
Y1123950D02*
X671830Y1109980D01*
X715886D01*
X795020D02*
X816610Y1088390D01*
X795020Y1109980D02*
Y1131570D01*
X944880Y1455420D02*
X971550D01*
X952500Y1404620D02*
X971550D01*
Y1379220D02*
X986790D01*
X570230Y1276350D02*
X588010D01*
X680810Y1541667D02*
X731687D01*
X845312Y1401967D02*
X850810D01*
X819150Y1329182D02*
X845312Y1355344D01*
X819150Y1264920D02*
Y1329182D01*
X750570Y1504950D02*
X764540D01*
X736600D02*
X750570D01*
X736600Y1477010D02*
Y1490980D01*
X764540D02*
Y1504950D01*
Y1477010D02*
Y1490980D01*
X750570D02*
X764540D01*
X736600Y1477010D02*
X750570D01*
Y1490980D01*
X906780Y1320800D02*
Y1346200D01*
D25*
X971550Y1455420D02*
D03*
Y1430020D02*
D03*
Y1404620D02*
D03*
Y1379220D02*
D03*
Y1353820D02*
D03*
Y1328420D02*
D03*
Y1303020D02*
D03*
X952500Y1184910D02*
D03*
Y1113790D02*
D03*
X819150Y1214120D02*
D03*
Y1264920D02*
D03*
X712470Y1266190D02*
D03*
Y1215390D02*
D03*
X845820Y1131570D02*
D03*
X795020D02*
D03*
X688340Y1130300D02*
D03*
X739140D02*
D03*
X632460Y1101090D02*
D03*
Y1126490D02*
D03*
X586740Y1102360D02*
D03*
Y1127760D02*
D03*
Y1153160D02*
D03*
Y1178560D02*
D03*
Y1203960D02*
D03*
X588010Y1250950D02*
D03*
Y1276350D02*
D03*
Y1479550D02*
D03*
Y1454150D02*
D03*
Y1428750D02*
D03*
Y1403350D02*
D03*
Y1377950D02*
D03*
Y1352550D02*
D03*
Y1327150D02*
D03*
Y1301750D02*
D03*
X906780Y1473200D02*
D03*
Y1447800D02*
D03*
Y1422400D02*
D03*
Y1397000D02*
D03*
Y1371600D02*
D03*
Y1346200D02*
D03*
Y1320800D02*
D03*
Y1295400D02*
D03*
Y1498600D02*
D03*
Y1524000D02*
D03*
X845820Y1310640D02*
D03*
X769620D02*
D03*
X687070Y1347470D02*
D03*
X763270D02*
D03*
X996950Y1567180D02*
D03*
X971550D02*
D03*
X946150D02*
D03*
X585470Y1520190D02*
D03*
Y1545590D02*
D03*
D26*
X871220Y1503567D02*
D03*
X791210Y1417320D02*
D03*
X812059Y1425469D02*
D03*
X825500Y1454150D02*
D03*
X909400Y1544339D02*
D03*
X706120Y1413122D02*
D03*
X759988Y1457220D02*
D03*
X632460Y1555430D02*
D03*
X612140Y1223010D02*
D03*
X802640Y1454150D02*
D03*
X822960Y1478280D02*
D03*
X906696Y1565020D02*
D03*
X681400Y1370920D02*
D03*
X640080Y1527810D02*
D03*
X711200Y1473200D02*
D03*
X919480Y1217930D02*
D03*
X669290Y1249680D02*
D03*
X806450Y1515110D02*
D03*
X811530Y1549400D02*
D03*
X711454Y1516267D02*
D03*
X736092Y1414272D02*
D03*
D27*
X746760Y1591310D02*
D03*
M02*
