G04*
G04 #@! TF.GenerationSoftware,Altium Limited,Altium Designer,23.1.1 (15)*
G04*
G04 Layer_Color=2752767*
%FSLAX44Y44*%
%MOMM*%
G71*
G04*
G04 #@! TF.SameCoordinates,A58621D0-7F8E-4CF1-AD1D-3CF83AC58B01*
G04*
G04*
G04 #@! TF.FilePolarity,Positive*
G04*
G01*
G75*
%ADD10C,0.1270*%
D10*
X966470Y1450340D02*
Y1460500D01*
X976630D01*
Y1450340D01*
X966470D01*
Y1424940D02*
Y1435100D01*
X976630D01*
Y1424940D01*
X966470D01*
Y1399540D02*
Y1409700D01*
X976630D01*
Y1399540D01*
X966470D01*
Y1374140D02*
Y1384300D01*
X976630D01*
Y1374140D01*
X966470D01*
Y1348740D02*
Y1358900D01*
X976630D01*
Y1348740D01*
X966470D01*
Y1323340D02*
Y1333500D01*
X976630D01*
Y1323340D01*
X966470D01*
Y1297940D02*
Y1308100D01*
X976630D01*
Y1297940D01*
X966470D01*
X947420Y1179830D02*
Y1189990D01*
X957580D01*
Y1179830D01*
X947420D01*
Y1108710D02*
Y1118870D01*
X957580D01*
Y1108710D01*
X947420D01*
X814070Y1209040D02*
Y1219200D01*
X824230D01*
Y1209040D01*
X814070D01*
Y1259840D02*
Y1270000D01*
X824230D01*
Y1259840D01*
X814070D01*
X707390Y1261110D02*
Y1271270D01*
X717550D01*
Y1261110D01*
X707390D01*
Y1210310D02*
Y1220470D01*
X717550D01*
Y1210310D01*
X707390D01*
X840740Y1126490D02*
Y1136650D01*
X850900D01*
Y1126490D01*
X840740D01*
X789940D02*
Y1136650D01*
X800100D01*
Y1126490D01*
X789940D01*
X683260Y1125220D02*
Y1135380D01*
X693420D01*
Y1125220D01*
X683260D01*
X734060D02*
Y1135380D01*
X744220D01*
Y1125220D01*
X734060D01*
X627380Y1096010D02*
Y1106170D01*
X637540D01*
Y1096010D01*
X627380D01*
Y1121410D02*
Y1131570D01*
X637540D01*
Y1121410D01*
X627380D01*
X581660Y1097280D02*
Y1107440D01*
X591820D01*
Y1097280D01*
X581660D01*
Y1122680D02*
Y1132840D01*
X591820D01*
Y1122680D01*
X581660D01*
Y1148080D02*
Y1158240D01*
X591820D01*
Y1148080D01*
X581660D01*
Y1173480D02*
Y1183640D01*
X591820D01*
Y1173480D01*
X581660D01*
Y1198880D02*
Y1209040D01*
X591820D01*
Y1198880D01*
X581660D01*
X582930Y1245870D02*
Y1256030D01*
X593090D01*
Y1245870D01*
X582930D01*
Y1271270D02*
Y1281430D01*
X593090D01*
Y1271270D01*
X582930D01*
Y1474470D02*
Y1484630D01*
X593090D01*
Y1474470D01*
X582930D01*
Y1449070D02*
Y1459230D01*
X593090D01*
Y1449070D01*
X582930D01*
Y1423670D02*
Y1433830D01*
X593090D01*
Y1423670D01*
X582930D01*
Y1398270D02*
Y1408430D01*
X593090D01*
Y1398270D01*
X582930D01*
Y1372870D02*
Y1383030D01*
X593090D01*
Y1372870D01*
X582930D01*
Y1347470D02*
Y1357630D01*
X593090D01*
Y1347470D01*
X582930D01*
Y1322070D02*
Y1332230D01*
X593090D01*
Y1322070D01*
X582930D01*
Y1296670D02*
Y1306830D01*
X593090D01*
Y1296670D01*
X582930D01*
X901700Y1468120D02*
Y1478280D01*
X911860D01*
Y1468120D01*
X901700D01*
Y1442720D02*
Y1452880D01*
X911860D01*
Y1442720D01*
X901700D01*
Y1417320D02*
Y1427480D01*
X911860D01*
Y1417320D01*
X901700D01*
Y1391920D02*
Y1402080D01*
X911860D01*
Y1391920D01*
X901700D01*
Y1366520D02*
Y1376680D01*
X911860D01*
Y1366520D01*
X901700D01*
Y1341120D02*
Y1351280D01*
X911860D01*
Y1341120D01*
X901700D01*
Y1315720D02*
Y1325880D01*
X911860D01*
Y1315720D01*
X901700D01*
Y1290320D02*
Y1300480D01*
X911860D01*
Y1290320D01*
X901700D01*
Y1493520D02*
Y1503680D01*
X911860D01*
Y1493520D01*
X901700D01*
Y1518920D02*
Y1529080D01*
X911860D01*
Y1518920D01*
X901700D01*
X840740Y1305560D02*
Y1315720D01*
X850900D01*
Y1305560D01*
X840740D01*
X764540D02*
Y1315720D01*
X774700D01*
Y1305560D01*
X764540D01*
X681990Y1342390D02*
Y1352550D01*
X692150D01*
Y1342390D01*
X681990D01*
X758190D02*
Y1352550D01*
X768350D01*
Y1342390D01*
X758190D01*
X991870Y1562100D02*
Y1572260D01*
X1002030D01*
Y1562100D01*
X991870D01*
X966470D02*
Y1572260D01*
X976630D01*
Y1562100D01*
X966470D01*
X941070D02*
Y1572260D01*
X951230D01*
Y1562100D01*
X941070D01*
X580390Y1515110D02*
Y1525270D01*
X590550D01*
Y1515110D01*
X580390D01*
Y1540510D02*
Y1550670D01*
X590550D01*
Y1540510D01*
X580390D01*
X871220Y1498487D02*
X866140Y1508647D01*
X876300D01*
X871220Y1498487D01*
X791210Y1412240D02*
X786130Y1422400D01*
X796290D01*
X791210Y1412240D01*
X812059Y1420389D02*
X806979Y1430549D01*
X817139D01*
X812059Y1420389D01*
X825500Y1449070D02*
X820420Y1459230D01*
X830580D01*
X825500Y1449070D01*
X909400Y1539259D02*
X904320Y1549419D01*
X914480D01*
X909400Y1539259D01*
X706120Y1408042D02*
X701040Y1418202D01*
X711200D01*
X706120Y1408042D01*
X759988Y1452140D02*
X754908Y1462300D01*
X765068D01*
X759988Y1452140D01*
X632460Y1550350D02*
X627380Y1560510D01*
X637540D01*
X632460Y1550350D01*
X612140Y1217930D02*
X607060Y1228090D01*
X617220D01*
X612140Y1217930D01*
X802640Y1449070D02*
X797560Y1459230D01*
X807720D01*
X802640Y1449070D01*
X822960Y1473200D02*
X817880Y1483360D01*
X828040D01*
X822960Y1473200D01*
X906696Y1559940D02*
X901616Y1570100D01*
X911776D01*
X906696Y1559940D01*
X681400Y1365840D02*
X676320Y1376000D01*
X686480D01*
X681400Y1365840D01*
X746760Y1586230D02*
X741680Y1596390D01*
X751840D01*
X746760Y1586230D01*
X640080Y1522730D02*
X635000Y1532890D01*
X645160D01*
X640080Y1522730D01*
X711200Y1468120D02*
X706120Y1478280D01*
X716280D01*
X711200Y1468120D01*
X919480Y1212850D02*
X914400Y1223010D01*
X924560D01*
X919480Y1212850D01*
X669290Y1244600D02*
X664210Y1254760D01*
X674370D01*
X669290Y1244600D01*
X806450Y1510030D02*
X801370Y1520190D01*
X811530D01*
X806450Y1510030D01*
X811530Y1544320D02*
X806450Y1554480D01*
X816610D01*
X811530Y1544320D01*
X711454Y1511187D02*
X706374Y1521347D01*
X716534D01*
X711454Y1511187D01*
X736092Y1409192D02*
X731012Y1419352D01*
X741172D01*
X736092Y1409192D01*
M02*
