G04*
G04 #@! TF.GenerationSoftware,Altium Limited,Altium Designer,23.1.1 (15)*
G04*
G04 Layer_Color=32768*
%FSLAX44Y44*%
%MOMM*%
G71*
G04*
G04 #@! TF.SameCoordinates,A58621D0-7F8E-4CF1-AD1D-3CF83AC58B01*
G04*
G04*
G04 #@! TF.FilePolarity,Positive*
G04*
G01*
G75*
%ADD14C,0.1524*%
G36*
X1013460Y1552180D02*
X928850D01*
Y1582180D01*
X1013460D01*
Y1552180D01*
D02*
G37*
G36*
X600470Y1504950D02*
X570470D01*
Y1562890D01*
X600470D01*
Y1504950D01*
D02*
G37*
G36*
X863383Y1374982D02*
X668237D01*
Y1640078D01*
X863383D01*
Y1374982D01*
D02*
G37*
G36*
X780570Y1332470D02*
X673100D01*
Y1362470D01*
X780570D01*
Y1332470D01*
D02*
G37*
G36*
X863120Y1295640D02*
X755650D01*
Y1325640D01*
X863120D01*
Y1295640D01*
D02*
G37*
G36*
X921780Y1281430D02*
X891780D01*
Y1541300D01*
X921780D01*
Y1281430D01*
D02*
G37*
G36*
X603010Y1233650D02*
X573010D01*
Y1493520D01*
X603010D01*
Y1233650D01*
D02*
G37*
G36*
X999010Y1228090D02*
X941070D01*
Y1529870D01*
X999010D01*
Y1228090D01*
D02*
G37*
G36*
X754380Y1198880D02*
X669290D01*
Y1283970D01*
X754380D01*
Y1198880D01*
D02*
G37*
G36*
X861060Y1197610D02*
X775970D01*
Y1282700D01*
X861060D01*
Y1197610D01*
D02*
G37*
G36*
X862330Y1088390D02*
X777240D01*
Y1173480D01*
X862330D01*
Y1088390D01*
D02*
G37*
G36*
X755650Y1087120D02*
X670560D01*
Y1172210D01*
X755650D01*
Y1087120D01*
D02*
G37*
G36*
X647460Y1085850D02*
X617460D01*
Y1143790D01*
X647460D01*
Y1085850D01*
D02*
G37*
G36*
X601740Y1085060D02*
X571740D01*
Y1219200D01*
X601740D01*
Y1085060D01*
D02*
G37*
D14*
X668237Y1374982D02*
Y1640078D01*
Y1374982D02*
X863383D01*
Y1640078D01*
X668237D02*
X863383D01*
M02*
