G04*
G04 #@! TF.GenerationSoftware,Altium Limited,Altium Designer,23.1.1 (15)*
G04*
G04 Layer_Color=128*
%FSLAX44Y44*%
%MOMM*%
G71*
G04*
G04 #@! TF.SameCoordinates,A58621D0-7F8E-4CF1-AD1D-3CF83AC58B01*
G04*
G04*
G04 #@! TF.FilePolarity,Positive*
G04*
G01*
G75*
%ADD10C,0.1270*%
D10*
X966450Y1455420D02*
X976650D01*
X971550Y1450320D02*
Y1460520D01*
X966450Y1430020D02*
X976650D01*
X971550Y1424920D02*
Y1435120D01*
X966450Y1404620D02*
X976650D01*
X971550Y1399520D02*
Y1409720D01*
X966450Y1379220D02*
X976650D01*
X971550Y1374120D02*
Y1384320D01*
X966450Y1353820D02*
X976650D01*
X971550Y1348720D02*
Y1358920D01*
X966450Y1328420D02*
X976650D01*
X971550Y1323320D02*
Y1333520D01*
X966450Y1303020D02*
X976650D01*
X971550Y1297920D02*
Y1308120D01*
X947400Y1184910D02*
X957600D01*
X952500Y1179810D02*
Y1190010D01*
X947400Y1113790D02*
X957600D01*
X952500Y1108690D02*
Y1118890D01*
X814050Y1214120D02*
X824250D01*
X819150Y1209020D02*
Y1219220D01*
X814050Y1264920D02*
X824250D01*
X819150Y1259820D02*
Y1270020D01*
X707370Y1266190D02*
X717570D01*
X712470Y1261090D02*
Y1271290D01*
X707370Y1215390D02*
X717570D01*
X712470Y1210290D02*
Y1220490D01*
X840720Y1131570D02*
X850920D01*
X845820Y1126470D02*
Y1136670D01*
X789920Y1131570D02*
X800120D01*
X795020Y1126470D02*
Y1136670D01*
X683240Y1130300D02*
X693440D01*
X688340Y1125200D02*
Y1135400D01*
X734040Y1130300D02*
X744240D01*
X739140Y1125200D02*
Y1135400D01*
X627360Y1101090D02*
X637560D01*
X632460Y1095990D02*
Y1106190D01*
X627360Y1126490D02*
X637560D01*
X632460Y1121390D02*
Y1131590D01*
X581640Y1102360D02*
X591840D01*
X586740Y1097260D02*
Y1107460D01*
X581640Y1127760D02*
X591840D01*
X586740Y1122660D02*
Y1132860D01*
X581640Y1153160D02*
X591840D01*
X586740Y1148060D02*
Y1158260D01*
X581640Y1178560D02*
X591840D01*
X586740Y1173460D02*
Y1183660D01*
X581640Y1203960D02*
X591840D01*
X586740Y1198860D02*
Y1209060D01*
X582910Y1250950D02*
X593110D01*
X588010Y1245850D02*
Y1256050D01*
X582910Y1276350D02*
X593110D01*
X588010Y1271250D02*
Y1281450D01*
X582910Y1479550D02*
X593110D01*
X588010Y1474450D02*
Y1484650D01*
X582910Y1454150D02*
X593110D01*
X588010Y1449050D02*
Y1459250D01*
X582910Y1428750D02*
X593110D01*
X588010Y1423650D02*
Y1433850D01*
X582910Y1403350D02*
X593110D01*
X588010Y1398250D02*
Y1408450D01*
X582910Y1377950D02*
X593110D01*
X588010Y1372850D02*
Y1383050D01*
X582910Y1352550D02*
X593110D01*
X588010Y1347450D02*
Y1357650D01*
X582910Y1327150D02*
X593110D01*
X588010Y1322050D02*
Y1332250D01*
X582910Y1301750D02*
X593110D01*
X588010Y1296650D02*
Y1306850D01*
X901680Y1473200D02*
X911880D01*
X906780Y1468100D02*
Y1478300D01*
X901680Y1447800D02*
X911880D01*
X906780Y1442700D02*
Y1452900D01*
X901680Y1422400D02*
X911880D01*
X906780Y1417300D02*
Y1427500D01*
X901680Y1397000D02*
X911880D01*
X906780Y1391900D02*
Y1402100D01*
X901680Y1371600D02*
X911880D01*
X906780Y1366500D02*
Y1376700D01*
X901680Y1346200D02*
X911880D01*
X906780Y1341100D02*
Y1351300D01*
X901680Y1320800D02*
X911880D01*
X906780Y1315700D02*
Y1325900D01*
X901680Y1295400D02*
X911880D01*
X906780Y1290300D02*
Y1300500D01*
X901680Y1498600D02*
X911880D01*
X906780Y1493500D02*
Y1503700D01*
X901680Y1524000D02*
X911880D01*
X906780Y1518900D02*
Y1529100D01*
X840720Y1310640D02*
X850920D01*
X845820Y1305540D02*
Y1315740D01*
X764520Y1310640D02*
X774720D01*
X769620Y1305540D02*
Y1315740D01*
X681970Y1347470D02*
X692170D01*
X687070Y1342370D02*
Y1352570D01*
X758170Y1347470D02*
X768370D01*
X763270Y1342370D02*
Y1352570D01*
X991850Y1567180D02*
X1002050D01*
X996950Y1562080D02*
Y1572280D01*
X966450Y1567180D02*
X976650D01*
X971550Y1562080D02*
Y1572280D01*
X941050Y1567180D02*
X951250D01*
X946150Y1562080D02*
Y1572280D01*
X580370Y1520190D02*
X590570D01*
X585470Y1515090D02*
Y1525290D01*
X580370Y1545590D02*
X590570D01*
X585470Y1540490D02*
Y1550690D01*
X868720Y1503567D02*
X873720D01*
X871220Y1501067D02*
Y1506067D01*
X788710Y1417320D02*
X793710D01*
X791210Y1414820D02*
Y1419820D01*
X809559Y1425469D02*
X814559D01*
X812059Y1422969D02*
Y1427969D01*
X823000Y1454150D02*
X828000D01*
X825500Y1451650D02*
Y1456650D01*
X906900Y1544339D02*
X911900D01*
X909400Y1541839D02*
Y1546839D01*
X703620Y1413122D02*
X708620D01*
X706120Y1410622D02*
Y1415622D01*
X757488Y1457220D02*
X762488D01*
X759988Y1454720D02*
Y1459720D01*
X629960Y1555430D02*
X634960D01*
X632460Y1552930D02*
Y1557930D01*
X609640Y1223010D02*
X614640D01*
X612140Y1220510D02*
Y1225510D01*
X800140Y1454150D02*
X805140D01*
X802640Y1451650D02*
Y1456650D01*
X820460Y1478280D02*
X825460D01*
X822960Y1475780D02*
Y1480780D01*
X904196Y1565020D02*
X909196D01*
X906696Y1562520D02*
Y1567520D01*
X678900Y1370920D02*
X683900D01*
X681400Y1368420D02*
Y1373420D01*
X744260Y1591310D02*
X749260D01*
X746760Y1588810D02*
Y1593810D01*
X637580Y1527810D02*
X642580D01*
X640080Y1525310D02*
Y1530310D01*
X708700Y1473200D02*
X713700D01*
X711200Y1470700D02*
Y1475700D01*
X916980Y1217930D02*
X921980D01*
X919480Y1215430D02*
Y1220430D01*
X666790Y1249680D02*
X671790D01*
X669290Y1247180D02*
Y1252180D01*
X803950Y1515110D02*
X808950D01*
X806450Y1512610D02*
Y1517610D01*
X809030Y1549400D02*
X814030D01*
X811530Y1546900D02*
Y1551900D01*
X708954Y1516267D02*
X713954D01*
X711454Y1513767D02*
Y1518767D01*
X733592Y1414272D02*
X738592D01*
X736092Y1411772D02*
Y1416772D01*
M02*
