G04*
G04 #@! TF.GenerationSoftware,Altium Limited,Altium Designer,23.1.1 (15)*
G04*
G04 Layer_Color=255*
%FSLAX44Y44*%
%MOMM*%
G71*
G04*
G04 #@! TF.SameCoordinates,A58621D0-7F8E-4CF1-AD1D-3CF83AC58B01*
G04*
G04*
G04 #@! TF.FilePolarity,Positive*
G04*
G01*
G75*
%ADD16R,1.0500X1.0500*%
%ADD17R,0.8890X2.0066*%
%ADD18R,2.0066X0.8890*%
%ADD25C,1.5300*%
D16*
X736600Y1477010D02*
D03*
X750570D02*
D03*
X764540D02*
D03*
X736600Y1504950D02*
D03*
X750570D02*
D03*
X764540D02*
D03*
X736600Y1490980D02*
D03*
X750570D02*
D03*
X764540D02*
D03*
D17*
X822960Y1387555D02*
D03*
X810260D02*
D03*
X797560D02*
D03*
X784860D02*
D03*
X772160D02*
D03*
X759460D02*
D03*
X746760D02*
D03*
X734060D02*
D03*
X721360D02*
D03*
X708660D02*
D03*
D18*
X680810Y1567067D02*
D03*
Y1554367D02*
D03*
Y1541667D02*
D03*
Y1528967D02*
D03*
Y1516267D02*
D03*
Y1503567D02*
D03*
Y1490867D02*
D03*
Y1478167D02*
D03*
Y1465467D02*
D03*
Y1452767D02*
D03*
Y1440067D02*
D03*
Y1427367D02*
D03*
Y1414667D02*
D03*
Y1401967D02*
D03*
X850810Y1541667D02*
D03*
Y1528967D02*
D03*
Y1516267D02*
D03*
Y1503567D02*
D03*
Y1490867D02*
D03*
Y1478167D02*
D03*
Y1465467D02*
D03*
Y1452767D02*
D03*
Y1440067D02*
D03*
Y1427367D02*
D03*
Y1414667D02*
D03*
Y1401967D02*
D03*
Y1567067D02*
D03*
Y1554367D02*
D03*
X680810Y1567067D02*
D03*
Y1554367D02*
D03*
Y1541667D02*
D03*
Y1528967D02*
D03*
Y1516267D02*
D03*
Y1503567D02*
D03*
Y1490867D02*
D03*
Y1478167D02*
D03*
Y1465467D02*
D03*
Y1452767D02*
D03*
Y1440067D02*
D03*
Y1427367D02*
D03*
Y1414667D02*
D03*
Y1401967D02*
D03*
X850810Y1541667D02*
D03*
Y1528967D02*
D03*
Y1516267D02*
D03*
Y1503567D02*
D03*
Y1490867D02*
D03*
Y1478167D02*
D03*
Y1465467D02*
D03*
Y1452767D02*
D03*
Y1440067D02*
D03*
Y1427367D02*
D03*
Y1414667D02*
D03*
Y1401967D02*
D03*
Y1567067D02*
D03*
Y1554367D02*
D03*
X680810Y1567067D02*
D03*
Y1554367D02*
D03*
Y1541667D02*
D03*
Y1528967D02*
D03*
Y1516267D02*
D03*
Y1503567D02*
D03*
Y1490867D02*
D03*
Y1478167D02*
D03*
Y1465467D02*
D03*
Y1452767D02*
D03*
Y1440067D02*
D03*
Y1427367D02*
D03*
Y1414667D02*
D03*
Y1401967D02*
D03*
X850810Y1541667D02*
D03*
Y1528967D02*
D03*
Y1516267D02*
D03*
Y1503567D02*
D03*
Y1490867D02*
D03*
Y1478167D02*
D03*
Y1465467D02*
D03*
Y1452767D02*
D03*
Y1440067D02*
D03*
Y1427367D02*
D03*
Y1414667D02*
D03*
Y1401967D02*
D03*
Y1567067D02*
D03*
Y1554367D02*
D03*
D25*
X971550Y1455420D02*
D03*
Y1430020D02*
D03*
Y1404620D02*
D03*
Y1379220D02*
D03*
Y1353820D02*
D03*
Y1328420D02*
D03*
Y1303020D02*
D03*
X952500Y1184910D02*
D03*
Y1113790D02*
D03*
X819150Y1214120D02*
D03*
Y1264920D02*
D03*
X712470Y1266190D02*
D03*
Y1215390D02*
D03*
X845820Y1131570D02*
D03*
X795020D02*
D03*
X688340Y1130300D02*
D03*
X739140D02*
D03*
X632460Y1101090D02*
D03*
Y1126490D02*
D03*
X586740Y1102360D02*
D03*
Y1127760D02*
D03*
Y1153160D02*
D03*
Y1178560D02*
D03*
Y1203960D02*
D03*
X588010Y1250950D02*
D03*
Y1276350D02*
D03*
Y1479550D02*
D03*
Y1454150D02*
D03*
Y1428750D02*
D03*
Y1403350D02*
D03*
Y1377950D02*
D03*
Y1352550D02*
D03*
Y1327150D02*
D03*
Y1301750D02*
D03*
X906780Y1473200D02*
D03*
Y1447800D02*
D03*
Y1422400D02*
D03*
Y1397000D02*
D03*
Y1371600D02*
D03*
Y1346200D02*
D03*
Y1320800D02*
D03*
Y1295400D02*
D03*
Y1498600D02*
D03*
Y1524000D02*
D03*
X845820Y1310640D02*
D03*
X769620D02*
D03*
X687070Y1347470D02*
D03*
X763270D02*
D03*
X996950Y1567180D02*
D03*
X971550D02*
D03*
X946150D02*
D03*
X585470Y1520190D02*
D03*
Y1545590D02*
D03*
M02*
